<svg width="1920" height="573" viewBox="0 0 1920 573" fill="none" xmlns="http://www.w3.org/2000/svg">
<path d="M1929 419L1631.66 253.689C1576.87 223.231 1512.03 216.452 1452.13 234.92L1204.74 311.196C1141.86 330.586 1073.67 322.108 1017.45 287.907L869.145 197.697C816.993 165.973 754.368 156.283 695.066 170.761L461.62 227.754C396.268 243.71 327.206 230.253 272.624 190.93L8.99999 0.999832" stroke="#799FCA" stroke-opacity="0.2"/>
<path d="M1923 467L1625.66 301.689C1570.87 271.231 1506.03 264.452 1446.13 282.92L1198.74 359.196C1135.86 378.586 1067.67 370.108 1011.45 335.907L863.145 245.697C810.993 213.973 748.368 204.283 689.066 218.761L455.62 275.754C390.268 291.71 321.206 278.253 266.624 238.93L2.99999 48.9998" stroke="#799FCA" stroke-opacity="0.2"/>
<path d="M1923 512L1625.66 346.689C1570.87 316.231 1506.03 309.452 1446.13 327.92L1198.74 404.196C1135.86 423.586 1067.67 415.108 1011.45 380.907L863.145 290.697C810.993 258.973 748.368 249.283 689.066 263.761L455.62 320.754C390.268 336.71 321.206 323.253 266.624 283.93L2.99999 93.9998" stroke="#799FCA" stroke-opacity="0.2"/>
<path d="M1916 546L1618.66 380.689C1563.87 350.231 1499.03 343.452 1439.13 361.92L1191.74 438.196C1128.86 457.586 1060.67 449.108 1004.45 414.907L856.145 324.697C803.993 292.973 741.368 283.283 682.066 297.761L448.62 354.754C383.268 370.71 314.206 357.253 259.624 317.93L-4.00001 128" stroke="#799FCA" stroke-opacity="0.2"/>
<path d="M1911 572L1613.66 406.689C1558.87 376.231 1494.03 369.452 1434.13 387.92L1186.74 464.196C1123.86 483.586 1055.67 475.108 999.449 440.907L851.145 350.697C798.993 318.973 736.368 309.283 677.066 323.761L443.62 380.754C378.268 396.71 309.206 383.253 254.624 343.93L-9.00001 154" stroke="#799FCA" stroke-opacity="0.2"/>
</svg>
